<svg width="236" height="71" viewBox="0 0 236 71" fill="none" xmlns="http://www.w3.org/2000/svg">
<path d="M4.69581 15.0396H50.0021L54.6979 62.564H0L4.69581 15.0396Z" fill="#31C28D"/>
<rect x="17.2613" y="2.71011" width="20.6238" height="42.5927" rx="10.3119" stroke="#2FC18C" stroke-width="4.03509"/>
<path d="M31.2358 37.6568L31.2358 47.172C31.2358 48.6052 30.0739 49.7671 28.6407 49.7671C27.2075 49.7671 26.0457 48.6052 26.0457 47.172L26.0457 37.6568" stroke="white" stroke-width="2.69006" stroke-linecap="round" stroke-linejoin="round"/>
<path d="M10.4753 38.5218L10.4753 32.8992C10.4753 27.4052 14.929 22.9515 20.423 22.9515L21.288 22.9515C26.782 22.9515 31.2358 27.4052 31.2358 32.8992L31.2358 38.5219" stroke="white" stroke-width="2.69006" stroke-linecap="round" stroke-linejoin="round"/>
<path d="M26.0458 35.0618L26.0458 36.7004L26.0458 39.3869C26.0458 40.8201 24.8839 41.982 23.4507 41.982C22.0175 41.982 20.8557 40.8201 20.8557 39.3869L20.8557 36.6346L20.8557 35.0618" stroke="white" stroke-width="2.69006" stroke-linecap="round" stroke-linejoin="round"/>
<path d="M20.8554 35.0618L20.8554 36.7004L20.8554 39.3869C20.8554 40.8201 19.6936 41.982 18.2603 41.982C16.8271 41.982 15.6653 40.8201 15.6653 39.3869L15.6653 36.6346L15.6653 35.0618" stroke="white" stroke-width="2.69006" stroke-linecap="round" stroke-linejoin="round"/>
<path d="M15.6654 35.0618L15.6654 36.7004L15.6654 39.3869C15.6654 40.8201 14.5036 41.982 13.0703 41.982C11.6371 41.982 10.4753 40.8201 10.4753 39.3869L10.4753 36.6346L10.4753 35.0618" stroke="white" stroke-width="2.69006" stroke-linecap="round" stroke-linejoin="round"/>
<path d="M19.9905 47.172C19.9905 48.0812 20.1308 48.9577 20.3909 49.7809C20.6818 50.7017 21.1226 51.5559 21.6847 52.3148C23.2605 54.4427 25.7895 55.8222 28.6407 55.8222C31.492 55.8222 34.021 54.4427 35.5968 52.3148C36.1589 51.5559 36.5997 50.7017 36.8906 49.7809C37.1507 48.9577 37.291 48.0812 37.291 47.172" stroke="white" stroke-width="2.69006" stroke-linecap="round"/>
<circle cx="39.9026" cy="36.5601" r="4.48344" fill="white"/>
<path d="M119.14 17.2626L121.604 14.6576V25.5879L119.914 24.215H130.527V28.4393H119.914L121.604 26.9608V39H116.147V13.0383H132.094V17.2626H119.14ZM135.88 39V13.0383H141.354V37.3631L138.89 34.5469H151.017V39H135.88ZM154.444 39V13.0383H162.839C164.576 13.0383 166.154 13.3551 167.574 13.9888C169.006 14.6107 170.232 15.4966 171.253 16.6465C172.285 17.7847 173.077 19.1459 173.629 20.73C174.18 22.3141 174.456 24.0625 174.456 25.9751C174.456 27.8878 174.18 29.6421 173.629 31.2379C173.077 32.8337 172.285 34.2125 171.253 35.3742C170.232 36.5241 169.006 37.4159 167.574 38.0495C166.154 38.6832 164.576 39 162.839 39H154.444ZM159.935 37.3807L157.471 34.7757H162.135C163.403 34.7757 164.547 34.4237 165.568 33.7197C166.6 33.0039 167.416 31.9889 168.014 30.6747C168.613 29.3487 168.912 27.7822 168.912 25.9751C168.912 24.1564 168.613 22.6016 168.014 21.3108C167.416 20.0084 166.6 19.011 165.568 18.3186C164.547 17.6146 163.403 17.2626 162.135 17.2626H157.471L159.935 14.6576V37.3807ZM181.088 17.2626L183.552 14.6576V25.4119L182.32 23.863H191.895V28.0873H182.32L183.552 26.5384V37.3807L181.088 34.7757H193.849V39H178.061V13.0383H193.849V17.2626H181.088ZM203.382 39.0528L196.958 13.0383H202.995L207.571 35.6734H207.325L211.866 13.0383H217.921L211.549 39.0528H203.382Z" fill="white"/>
<path d="M108.43 65.5355C107.222 65.5355 106.154 65.2674 105.225 64.7313C104.304 64.1876 103.579 63.4475 103.05 62.5112C102.529 61.5673 102.269 60.495 102.269 59.2943C102.269 58.0937 102.529 57.0289 103.05 56.1001C103.579 55.1713 104.304 54.4426 105.225 53.914C106.154 53.3854 107.222 53.1211 108.43 53.1211C109.639 53.1211 110.703 53.3854 111.625 53.914C112.553 54.4426 113.278 55.1713 113.799 56.1001C114.328 57.0289 114.592 58.0937 114.592 59.2943C114.592 60.495 114.328 61.5673 113.799 62.5112C113.278 63.4475 112.553 64.1876 111.625 64.7313C110.703 65.2674 109.639 65.5355 108.43 65.5355ZM108.43 63.7685C109.261 63.7685 109.994 63.5835 110.628 63.2134C111.262 62.8434 111.757 62.3224 112.112 61.6503C112.474 60.9783 112.655 60.1929 112.655 59.2943C112.655 58.3957 112.474 57.6179 112.112 56.961C111.757 56.2965 111.262 55.7867 110.628 55.4318C109.994 55.0694 109.261 54.8881 108.43 54.8881C107.607 54.8881 106.875 55.0694 106.233 55.4318C105.599 55.7867 105.1 56.2965 104.738 56.961C104.383 57.6179 104.206 58.3957 104.206 59.2943C104.206 60.1929 104.383 60.9783 104.738 61.6503C105.1 62.3224 105.599 62.8434 106.233 63.2134C106.875 63.5835 107.607 63.7685 108.43 63.7685ZM126.208 65.3203V59.5548C126.208 59.2075 126.208 58.9243 126.208 58.7053C126.208 58.4788 126.208 58.2636 126.208 58.0597C126.208 57.4329 126.102 56.8855 125.891 56.4173C125.68 55.9491 125.347 55.5866 124.894 55.3299C124.441 55.0731 123.848 54.9448 123.116 54.9448C122.474 54.9448 121.877 55.1109 121.326 55.4432C120.782 55.7679 120.345 56.2096 120.012 56.7684C119.688 57.3197 119.525 57.9389 119.525 58.626L118.426 58.2069C118.426 57.263 118.657 56.406 119.117 55.6357C119.586 54.8655 120.205 54.2538 120.975 53.8008C121.753 53.3401 122.599 53.1098 123.512 53.1098C124.441 53.1098 125.253 53.2873 125.948 53.6422C126.642 53.9971 127.178 54.5068 127.556 55.1713C127.941 55.8283 128.134 56.6212 128.134 57.55C128.134 57.8822 128.134 58.2447 128.134 58.6374C128.134 59.03 128.134 59.3963 128.134 59.7361V65.3203H126.208ZM117.6 65.3203V53.291H119.525V65.3203H117.6ZM133.566 47.6162V65.3203H131.663V47.6162H133.566ZM137.203 65.3203V53.291H139.106V65.3203H137.203ZM138.166 50.5273C137.811 50.5273 137.501 50.4291 137.237 50.2328C136.98 50.0289 136.852 49.7533 136.852 49.4059C136.852 49.0661 136.98 48.798 137.237 48.6017C137.501 48.3978 137.811 48.2959 138.166 48.2959C138.521 48.2959 138.827 48.3978 139.083 48.6017C139.34 48.798 139.469 49.0661 139.469 49.4059C139.469 49.7533 139.34 50.0289 139.083 50.2328C138.827 50.4291 138.521 50.5273 138.166 50.5273ZM151.296 65.3203V59.5548C151.296 59.2075 151.296 58.9243 151.296 58.7053C151.296 58.4788 151.296 58.2636 151.296 58.0597C151.296 57.4329 151.19 56.8855 150.978 56.4173C150.767 55.9491 150.435 55.5866 149.982 55.3299C149.528 55.0731 148.936 54.9448 148.203 54.9448C147.561 54.9448 146.965 55.1109 146.414 55.4432C145.87 55.7679 145.432 56.2096 145.1 56.7684C144.775 57.3197 144.613 57.9389 144.613 58.626L143.514 58.2069C143.514 57.263 143.744 56.406 144.205 55.6357C144.673 54.8655 145.292 54.2538 146.062 53.8008C146.84 53.3401 147.686 53.1098 148.6 53.1098C149.528 53.1098 150.34 53.2873 151.035 53.6422C151.73 53.9971 152.266 54.5068 152.643 55.1713C153.029 55.8283 153.221 56.6212 153.221 57.55C153.221 57.8822 153.221 58.2447 153.221 58.6374C153.221 59.03 153.221 59.3963 153.221 59.7361V65.3203H151.296ZM142.687 65.3203V53.291H144.613V65.3203H142.687ZM157.203 60.0759V58.3542H166.503L166.163 58.9205C166.163 58.8752 166.163 58.8337 166.163 58.7959C166.163 58.7506 166.163 58.7091 166.163 58.6713C166.163 57.9766 166.016 57.3423 165.721 56.7684C165.434 56.187 165.004 55.7226 164.43 55.3752C163.856 55.0278 163.146 54.8542 162.3 54.8542C161.447 54.8542 160.696 55.0354 160.046 55.3979C159.397 55.7603 158.891 56.2738 158.528 56.9383C158.166 57.5953 157.985 58.3806 157.985 59.2943C157.985 60.2231 158.158 61.0236 158.506 61.6956C158.861 62.3677 159.363 62.885 160.012 63.2474C160.662 63.6099 161.432 63.7911 162.323 63.7911C162.957 63.7911 163.509 63.7269 163.977 63.5986C164.445 63.4626 164.83 63.2852 165.132 63.0662C165.442 62.8397 165.676 62.5942 165.834 62.3299C165.993 62.0656 166.087 61.8013 166.118 61.5371H168.043C168.005 62.0203 167.854 62.4998 167.59 62.9756C167.326 63.4513 166.952 63.8855 166.469 64.2782C165.985 64.6633 165.393 64.9729 164.69 65.207C163.988 65.4411 163.18 65.5581 162.266 65.5581C161.058 65.5581 159.993 65.2938 159.072 64.7652C158.151 64.2366 157.426 63.5042 156.897 62.5678C156.376 61.6314 156.116 60.5554 156.116 59.3396C156.116 58.1088 156.38 57.0289 156.909 56.1001C157.437 55.1638 158.166 54.4313 159.095 53.9027C160.024 53.3741 161.085 53.1098 162.278 53.1098C163.493 53.1098 164.547 53.3741 165.438 53.9027C166.329 54.4313 167.016 55.1562 167.499 56.0775C167.983 56.9912 168.224 58.0333 168.224 59.2037C168.224 59.3245 168.221 59.4831 168.213 59.6794C168.205 59.8758 168.194 60.0079 168.179 60.0759H157.203ZM181.488 65.5468C180.763 65.5468 180.091 65.4713 179.472 65.3203C178.86 65.1617 178.324 64.9351 177.863 64.6406C177.41 64.3386 177.055 63.9686 176.798 63.5306C176.549 63.0926 176.425 62.5905 176.425 62.0241C176.425 61.9637 176.425 61.9033 176.425 61.8429C176.425 61.7749 176.425 61.7183 176.425 61.673H178.362C178.362 61.7183 178.362 61.756 178.362 61.7862C178.362 61.8165 178.362 61.8618 178.362 61.9222C178.362 62.5338 178.645 63.002 179.211 63.3267C179.777 63.6439 180.551 63.8024 181.533 63.8024C182.137 63.8024 182.677 63.742 183.153 63.6212C183.629 63.5004 184.002 63.3154 184.274 63.0662C184.554 62.817 184.693 62.5036 184.693 62.1261C184.693 61.4993 184.399 61.0538 183.81 60.7895C183.228 60.5176 182.356 60.2835 181.193 60.0872C180.582 59.9815 180 59.8456 179.449 59.6794C178.898 59.5058 178.407 59.283 177.976 59.0111C177.554 58.7393 177.218 58.4033 176.968 58.003C176.727 57.5953 176.606 57.1082 176.606 56.5419C176.606 55.8094 176.821 55.1902 177.252 54.6843C177.69 54.1708 178.279 53.7819 179.019 53.5176C179.759 53.2457 180.582 53.1098 181.488 53.1098C182.364 53.1098 183.172 53.2495 183.912 53.5289C184.652 53.8083 185.245 54.2161 185.69 54.7522C186.143 55.2808 186.37 55.934 186.37 56.7118C186.37 56.742 186.37 56.7797 186.37 56.825C186.37 56.8628 186.37 56.9006 186.37 56.9383H184.444C184.444 56.9006 184.444 56.8704 184.444 56.8477C184.444 56.825 184.444 56.7986 184.444 56.7684C184.444 56.3304 184.304 55.9718 184.025 55.6924C183.746 55.4054 183.383 55.194 182.938 55.058C182.492 54.9146 182.016 54.8428 181.51 54.8428C181.035 54.8428 180.567 54.8957 180.106 55.0014C179.645 55.0996 179.264 55.2657 178.962 55.4998C178.66 55.7339 178.509 56.0548 178.509 56.4626C178.509 56.8704 178.649 57.1988 178.928 57.448C179.215 57.6897 179.615 57.8898 180.129 58.0484C180.65 58.1994 181.261 58.3391 181.964 58.4675C182.59 58.5807 183.183 58.7242 183.742 58.8979C184.301 59.064 184.792 59.2792 185.214 59.5435C185.645 59.8078 185.981 60.1438 186.222 60.5516C186.472 60.9518 186.596 61.4427 186.596 62.0241C186.596 62.6131 186.46 63.1266 186.188 63.5646C185.924 64.0026 185.554 64.3688 185.078 64.6633C184.61 64.9578 184.067 65.1768 183.447 65.3203C182.836 65.4713 182.183 65.5468 181.488 65.5468ZM194.102 65.5015C193.732 65.5015 193.369 65.46 193.014 65.3769C192.659 65.2938 192.338 65.1466 192.051 64.9351C191.772 64.7161 191.549 64.4103 191.383 64.0177C191.217 63.6174 191.134 63.1039 191.134 62.4772C191.134 62.3186 191.134 62.1563 191.134 61.9901C191.134 61.8165 191.134 61.6352 191.134 61.4464V54.9901H188.2V53.291H190.081C190.337 53.291 190.537 53.2835 190.681 53.2684C190.824 53.2457 190.926 53.1967 190.987 53.1211C191.055 53.0381 191.096 52.9135 191.111 52.7473C191.126 52.5737 191.134 52.3358 191.134 52.0338V49.304H193.071V53.291H196.831V54.9901H193.071V60.8235C193.071 60.9896 193.071 61.1519 193.071 61.3105C193.071 61.4691 193.071 61.6163 193.071 61.7523C193.071 62.3941 193.146 62.8963 193.297 63.2587C193.456 63.6212 193.807 63.8024 194.351 63.8024C194.57 63.8024 194.777 63.7836 194.974 63.7458C195.17 63.7081 195.317 63.6703 195.416 63.6325V65.3089C195.287 65.3542 195.106 65.3958 194.872 65.4335C194.645 65.4788 194.389 65.5015 194.102 65.5015ZM204.599 65.5355C203.391 65.5355 202.322 65.2674 201.393 64.7313C200.472 64.1876 199.747 63.4475 199.219 62.5112C198.698 61.5673 198.437 60.495 198.437 59.2943C198.437 58.0937 198.698 57.0289 199.219 56.1001C199.747 55.1713 200.472 54.4426 201.393 53.914C202.322 53.3854 203.391 53.1211 204.599 53.1211C205.807 53.1211 206.872 53.3854 207.793 53.914C208.722 54.4426 209.447 55.1713 209.968 56.1001C210.496 57.0289 210.761 58.0937 210.761 59.2943C210.761 60.495 210.496 61.5673 209.968 62.5112C209.447 63.4475 208.722 64.1876 207.793 64.7313C206.872 65.2674 205.807 65.5355 204.599 65.5355ZM204.599 63.7685C205.429 63.7685 206.162 63.5835 206.796 63.2134C207.431 62.8434 207.925 62.3224 208.28 61.6503C208.643 60.9783 208.824 60.1929 208.824 59.2943C208.824 58.3957 208.643 57.6179 208.28 56.961C207.925 56.2965 207.431 55.7867 206.796 55.4318C206.162 55.0694 205.429 54.8881 204.599 54.8881C203.776 54.8881 203.043 55.0694 202.401 55.4318C201.767 55.7867 201.269 56.2965 200.906 56.961C200.551 57.6179 200.374 58.3957 200.374 59.2943C200.374 60.1929 200.551 60.9783 200.906 61.6503C201.269 62.3224 201.767 62.8434 202.401 63.2134C203.043 63.5835 203.776 63.7685 204.599 63.7685ZM213.768 65.3203V53.291H215.694V56.9836L215.059 56.7571C215.105 56.3116 215.218 55.8736 215.399 55.4432C215.58 55.0052 215.829 54.6125 216.147 54.2652C216.471 53.9102 216.875 53.6309 217.359 53.427C217.842 53.2155 218.408 53.1098 219.058 53.1098C219.541 53.1098 219.934 53.1513 220.236 53.2344C220.545 53.3099 220.738 53.3703 220.813 53.4156L220.315 55.3072C220.239 55.2544 220.085 55.1864 219.851 55.1034C219.624 55.0203 219.299 54.9788 218.876 54.9788C218.25 54.9788 217.729 55.092 217.313 55.3186C216.906 55.5451 216.581 55.8472 216.339 56.2247C216.105 56.5947 215.939 56.9987 215.841 57.4367C215.743 57.8747 215.694 58.3089 215.694 58.7393V65.3203H213.768ZM223.284 60.0759V58.3542H232.584L232.244 58.9205C232.244 58.8752 232.244 58.8337 232.244 58.7959C232.244 58.7506 232.244 58.7091 232.244 58.6713C232.244 57.9766 232.097 57.3423 231.802 56.7684C231.515 56.187 231.085 55.7226 230.511 55.3752C229.937 55.0278 229.227 54.8542 228.382 54.8542C227.528 54.8542 226.777 55.0354 226.127 55.3979C225.478 55.7603 224.972 56.2738 224.61 56.9383C224.247 57.5953 224.066 58.3806 224.066 59.2943C224.066 60.2231 224.24 61.0236 224.587 61.6956C224.942 62.3677 225.444 62.885 226.093 63.2474C226.743 63.6099 227.513 63.7911 228.404 63.7911C229.038 63.7911 229.59 63.7269 230.058 63.5986C230.526 63.4626 230.911 63.2852 231.213 63.0662C231.523 62.8397 231.757 62.5942 231.916 62.3299C232.074 62.0656 232.168 61.8013 232.199 61.5371H234.124C234.087 62.0203 233.935 62.4998 233.671 62.9756C233.407 63.4513 233.033 63.8855 232.55 64.2782C232.067 64.6633 231.474 64.9729 230.772 65.207C230.069 65.4411 229.261 65.5581 228.348 65.5581C227.139 65.5581 226.075 65.2938 225.153 64.7652C224.232 64.2366 223.507 63.5042 222.979 62.5678C222.458 61.6314 222.197 60.5554 222.197 59.3396C222.197 58.1088 222.461 57.0289 222.99 56.1001C223.518 55.1638 224.247 54.4313 225.176 53.9027C226.105 53.3741 227.166 53.1098 228.359 53.1098C229.575 53.1098 230.628 53.3741 231.519 53.9027C232.41 54.4313 233.097 55.1562 233.581 56.0775C234.064 56.9912 234.306 58.0333 234.306 59.2037C234.306 59.3245 234.302 59.4831 234.294 59.6794C234.287 59.8758 234.275 60.0079 234.26 60.0759H223.284Z" fill="#2FC18C"/>
</svg>
